<svg width="1866" height="2022" viewBox="0 0 1866 2022" fill="none" xmlns="http://www.w3.org/2000/svg">
<path d="M615.5 2022L763.5 1780L1450 1770.5L1523 1976H1351.5L1272.5 1846L896.5 1914L793 2022H615.5Z" fill="url(#paint0_linear_2028_11)"/>
<path d="M959 0C1180.96 0 1385.3 75.4039 1547.81 201.991L1148 367.5C678.5 215.5 367.5 726.5 629.501 1069L192.5 1207C290 1367 563 1587.5 951 1516C1085.83 1485.67 1342.5 1348 1248 1130.5C1180.18 974.407 935.5 1049.5 913.5 1141C864.667 1016.83 834.8 736.1 1106 606.5C1445 444.5 1758.3 658.092 1837.5 934.5C1893.5 1129.93 1860.68 1312.31 1773.09 1466.13C1603.71 1737.47 1302.44 1918 959 1918C868.701 1918 781.318 1905.52 698.479 1882.19L760.5 1777.5L624.142 1857.92C259.625 1722.07 0 1370.86 0 959C0 429.359 429.359 0 959 0ZM1277 732C1227.33 729 1123.6 750.2 1106 859L1195 871.5C1198.17 851.5 1214.89 812.796 1256.5 817.5C1314 824 1312.17 868.167 1314 890.5L1401.5 898.5C1404.5 827 1364.5 750 1277 732Z" fill="url(#paint1_linear_2028_11)"/>
<defs>
<linearGradient id="paint0_linear_2028_11" x1="1287.19" y1="1770.5" x2="1253.6" y2="2059.8" gradientUnits="userSpaceOnUse">
<stop stop-color="#3A0063"/>
<stop offset="0.986558" stop-color="#7600C9"/>
</linearGradient>
<linearGradient id="paint1_linear_2028_11" x1="1380.5" y1="-8.66605e-06" x2="568" y2="1886" gradientUnits="userSpaceOnUse">
<stop offset="0.0134415" stop-color="#7600C9"/>
<stop offset="1" stop-color="#3A0063"/>
</linearGradient>
</defs>
</svg>
