<svg width="2788" height="1316" viewBox="0 0 2788 1316" fill="none" xmlns="http://www.w3.org/2000/svg">
<g clip-path="url(#clip0_2036_18)">
<path d="M855.696 1110.63H760.25L715.973 1037.77L715.794 1037.48L715.456 1037.54L504.026 1075.78L503.866 1075.81L503.754 1075.92L445.702 1136.5H346.996L429.609 1001.42L815.004 996.083L855.696 1110.63Z" fill="url(#paint0_linear_2036_18)" stroke="black"/>
<path d="M539.26 0C664.068 2.76475e-05 778.972 42.4013 870.356 113.583L645.537 206.65C381.53 121.179 206.651 408.522 353.978 601.114L108.245 678.714C163.071 768.684 316.583 892.674 534.761 852.469C610.579 835.412 754.907 758 701.769 635.696C663.633 547.923 526.045 590.149 513.674 641.601C486.214 571.78 469.42 413.92 621.92 341.044C812.545 249.949 988.715 370.055 1033.25 525.483C1064.74 635.378 1046.29 737.927 997.038 824.423C901.79 977.003 732.38 1078.52 539.26 1078.52C488.483 1078.52 439.347 1071.5 392.766 1058.38L427.64 999.514L350.964 1044.73C145.991 968.346 5.13288e-05 770.852 0 539.26C0 241.435 241.435 0 539.26 0ZM718.075 411.614C690.147 409.927 631.817 421.849 621.92 483.028L671.966 490.057C673.747 478.81 683.15 457.047 706.548 459.692C738.881 463.348 737.85 488.183 738.881 500.741L788.084 505.239C789.771 465.034 767.278 421.736 718.075 411.614Z" fill="url(#paint1_linear_2036_18)"/>
<mask id="mask0_2036_18" style="mask-type:luminance" maskUnits="userSpaceOnUse" x="0" y="0" width="1049" height="1079">
<path d="M539.26 0C664.068 2.76475e-05 778.972 42.4013 870.356 113.583L645.537 206.65C381.53 121.179 206.651 408.522 353.978 601.114L108.245 678.714C163.071 768.684 316.583 892.674 534.761 852.469C610.579 835.412 754.907 758 701.769 635.696C663.633 547.923 526.045 590.149 513.674 641.601C486.214 571.78 469.42 413.92 621.92 341.044C812.545 249.949 988.715 370.055 1033.25 525.483C1064.74 635.378 1046.29 737.927 997.038 824.423C901.79 977.003 732.38 1078.52 539.26 1078.52C488.483 1078.52 439.347 1071.5 392.766 1058.38L427.64 999.514L350.964 1044.73C145.991 968.346 5.13288e-05 770.852 0 539.26C0 241.435 241.435 0 539.26 0ZM718.075 411.614C690.147 409.927 631.817 421.849 621.92 483.028L671.966 490.057C673.747 478.81 683.15 457.047 706.548 459.692C738.881 463.348 737.85 488.183 738.881 500.741L788.084 505.239C789.771 465.034 767.278 421.736 718.075 411.614Z" fill="white"/>
</mask>
<g mask="url(#mask0_2036_18)">
<path d="M870.356 113.583L870.739 114.507L872.326 113.85L870.971 112.794L870.356 113.583ZM645.537 206.65L645.229 207.602L645.579 207.715L645.92 207.574L645.537 206.65ZM353.978 601.114L354.279 602.068L355.638 601.639L354.772 600.507L353.978 601.114ZM108.245 678.714L107.944 677.76L106.727 678.145L107.391 679.234L108.245 678.714ZM534.761 852.469L534.942 853.452L534.961 853.449L534.98 853.444L534.761 852.469ZM513.674 641.601L512.743 641.967L513.904 644.919L514.646 641.834L513.674 641.601ZM997.038 824.423L997.886 824.952L997.897 824.935L997.907 824.918L997.038 824.423ZM392.766 1058.38L391.905 1057.87L391.242 1058.99L392.495 1059.34L392.766 1058.38ZM427.64 999.514L428.5 1000.02L427.132 998.652L427.64 999.514ZM350.964 1044.73L350.615 1045.67L351.061 1045.84L351.472 1045.59L350.964 1044.73ZM718.075 411.614L718.277 410.635L718.207 410.62L718.135 410.616L718.075 411.614ZM621.92 483.028L620.933 482.869L620.77 483.877L621.781 484.019L621.92 483.028ZM671.966 490.057L671.827 491.047L672.8 491.184L672.954 490.213L671.966 490.057ZM738.881 500.741L737.884 500.823L737.953 501.661L738.79 501.737L738.881 500.741ZM788.084 505.239L787.993 506.235L789.039 506.331L789.083 505.281L788.084 505.239ZM539.26 0V1C663.838 1.00003 778.527 43.3222 869.742 114.372L870.356 113.583L870.971 112.794C779.418 41.4805 664.299 -0.999972 539.26 -1V0ZM870.356 113.583L869.974 112.659L645.155 205.726L645.537 206.65L645.92 207.574L870.739 114.507L870.356 113.583ZM645.537 206.65L645.845 205.699C513.408 162.823 403.23 213.463 344.682 299.043C286.154 384.594 279.235 505.053 353.183 601.722L353.978 601.114L354.772 600.507C281.393 504.583 288.25 385.074 346.332 300.173C404.394 215.302 513.66 165.006 645.229 207.602L645.537 206.65ZM353.978 601.114L353.676 600.161L107.944 677.76L108.245 678.714L108.546 679.667L354.279 602.068L353.978 601.114ZM108.245 678.714L107.391 679.234C162.386 769.482 316.274 893.748 534.942 853.452L534.761 852.469L534.58 851.485C316.891 891.6 163.756 767.887 109.099 678.193L108.245 678.714ZM534.761 852.469L534.98 853.444C573.023 844.886 628.235 821.2 667.311 784.277C686.857 765.807 702.407 743.986 709.713 719.046C717.025 694.087 716.059 666.076 702.686 635.298L701.769 635.696L700.851 636.095C714.048 666.468 714.967 693.998 707.794 718.484C700.615 742.99 685.307 764.52 665.937 782.823C627.179 819.446 572.317 842.995 534.541 851.493L534.761 852.469ZM701.769 635.696L702.686 635.298C683.365 590.83 638.861 579.399 597.913 585.45C577.426 588.478 557.739 595.884 542.378 605.788C527.044 615.675 515.881 628.145 512.702 641.367L513.674 641.601L514.646 641.834C517.653 629.33 528.327 617.228 543.462 607.469C558.569 597.729 577.983 590.417 598.206 587.428C638.678 581.447 682.036 592.79 700.851 636.095L701.769 635.696ZM513.674 641.601L514.604 641.235C500.929 606.463 489.906 549.74 501.293 492.663C512.669 435.638 546.414 378.235 622.351 341.946L621.92 341.044L621.489 340.142C544.927 376.729 510.818 434.693 499.332 492.272C487.855 549.8 498.959 606.917 512.743 641.967L513.674 641.601ZM621.92 341.044L622.351 341.946C812.317 251.166 987.892 370.813 1032.29 525.759L1033.25 525.483L1034.21 525.208C989.538 369.298 812.772 248.732 621.489 340.142L621.92 341.044ZM1033.25 525.483L1032.29 525.759C1063.7 635.373 1045.3 737.646 996.169 823.928L997.038 824.423L997.907 824.918C1047.28 738.209 1065.78 635.383 1034.21 525.208L1033.25 525.483ZM997.038 824.423L996.19 823.893C901.117 976.193 732.021 1077.52 539.26 1077.52V1078.52V1079.52C732.74 1079.52 902.464 977.813 997.886 824.952L997.038 824.423ZM539.26 1078.52V1077.52C488.576 1077.52 439.531 1070.51 393.037 1057.42L392.766 1058.38L392.495 1059.34C439.163 1072.49 488.391 1079.52 539.26 1079.52V1078.52ZM392.766 1058.38L393.626 1058.89L428.5 1000.02L427.64 999.514L426.779 999.004L391.905 1057.87L392.766 1058.38ZM427.64 999.514L427.132 998.652L350.456 1043.87L350.964 1044.73L351.472 1045.59L428.148 1000.38L427.64 999.514ZM350.964 1044.73L351.313 1043.8C146.719 967.55 1.00005 770.421 1 539.26H0H-1C-0.999949 771.283 145.264 969.142 350.615 1045.67L350.964 1044.73ZM0 539.26H1C1 241.987 241.987 1 539.26 1V0V-1C240.883 -1 -1 240.883 -1 539.26H0ZM718.075 411.614L718.135 410.616C704.025 409.764 682.267 412.344 662.761 422.866C643.213 433.411 625.937 451.934 620.933 482.869L621.92 483.028L622.907 483.188C627.8 452.943 644.637 434.915 663.71 424.626C682.826 414.315 704.197 411.778 718.015 412.612L718.075 411.614ZM621.92 483.028L621.781 484.019L671.827 491.047L671.966 490.057L672.105 489.066L622.059 482.038L621.92 483.028ZM671.966 490.057L672.954 490.213C673.823 484.723 676.562 476.654 681.915 470.31C687.232 464.008 695.119 459.407 706.436 460.686L706.548 459.692L706.66 458.699C694.578 457.333 686.064 462.291 680.386 469.02C674.743 475.708 671.89 484.144 670.978 489.9L671.966 490.057ZM706.548 459.692L706.436 460.686C714.392 461.586 720.227 463.78 724.533 466.709C728.834 469.635 731.659 473.329 733.549 477.307C737.362 485.331 737.359 494.426 737.884 500.823L738.881 500.741L739.878 500.659C739.372 494.498 739.369 484.896 735.356 476.449C733.333 472.192 730.289 468.206 725.658 465.055C721.031 461.908 714.87 459.627 706.66 458.699L706.548 459.692ZM738.881 500.741L738.79 501.737L787.993 506.235L788.084 505.239L788.175 504.243L738.972 499.745L738.881 500.741ZM788.084 505.239L789.083 505.281C790.785 464.711 768.073 420.879 718.277 410.635L718.075 411.614L717.874 412.594C766.483 422.593 788.756 465.357 787.085 505.197L788.084 505.239Z" fill="black"/>
</g>
</g>
<path d="M1269.82 381.58C1269.82 369.96 1277.01 360 1291.4 351.7C1305.79 343.4 1320.73 339.25 1336.22 339.25C1345.63 339.25 1353.1 341.187 1358.63 345.06C1364.16 348.38 1366.65 353.913 1366.1 361.66C1364.99 409.247 1363.89 481.18 1362.78 577.46L1358.63 794.09C1358.08 806.263 1350.33 816.777 1335.39 825.63C1321 834.483 1306.06 838.91 1290.57 838.91C1280.61 838.91 1272.59 836.973 1266.5 833.1C1260.97 828.673 1258.2 822.31 1258.2 814.01L1261.52 677.89C1259.31 678.443 1255.99 678.72 1251.56 678.72L1234.96 677.89C1231.09 677.337 1225.28 677.06 1217.53 677.06C1213.66 677.06 1208.95 677.613 1203.42 678.72C1200.65 734.053 1196.78 781.087 1191.8 819.82C1190.69 831.44 1182.12 841.677 1166.07 850.53C1150.58 859.383 1135.08 863.81 1119.59 863.81C1110.18 863.81 1102.71 861.873 1097.18 858C1092.2 854.127 1089.99 848.317 1090.54 840.57C1098.84 764.21 1104.1 694.49 1106.31 631.41L1107.14 606.51C1108.8 558.37 1109.63 526.553 1109.63 511.06C1109.63 461.26 1106.59 430.55 1100.5 418.93C1091.65 419.483 1084.73 418.1 1079.75 414.78C1075.32 410.907 1073.11 406.203 1073.11 400.67C1073.11 395.137 1075.32 389.327 1079.75 383.24C1084.18 377.153 1089.71 372.173 1096.35 368.3C1117.38 356.68 1135.36 350.87 1150.3 350.87C1162.47 350.87 1173.26 354.743 1182.67 362.49C1197.06 374.663 1204.25 400.117 1204.25 438.85L1203.42 480.35C1205.08 508.57 1205.91 537.067 1205.91 565.84L1205.08 614.81C1208.4 613.703 1213.66 613.703 1220.85 614.81C1228.04 615.917 1233.58 616.47 1237.45 616.47C1241.32 616.47 1245.75 616.193 1250.73 615.64C1255.71 614.533 1260.14 613.703 1264.01 613.15L1269.82 381.58ZM1446.91 382.41C1447.47 371.343 1455.49 361.66 1470.98 353.36C1486.48 344.507 1501.97 340.08 1517.46 340.08C1526.32 340.08 1533.51 342.017 1539.04 345.89C1544.58 349.21 1547.07 354.743 1546.51 362.49L1522.44 813.18C1521.89 824.8 1513.87 835.037 1498.37 843.89C1482.88 852.19 1467.39 856.34 1451.89 856.34C1431.42 856.34 1421.46 848.317 1422.01 832.27L1446.91 382.41ZM1445.25 272.85C1444.15 280.597 1446.08 286.407 1451.06 290.28C1456.6 294.153 1463.79 296.09 1472.64 296.09C1487.58 296.09 1502.8 291.94 1518.29 283.64C1533.79 275.34 1542.36 265.38 1544.02 253.76C1548.45 226.093 1551.49 205.343 1553.15 191.51C1555.37 177.677 1546.79 170.76 1527.42 170.76C1512.48 170.76 1496.99 174.91 1480.94 183.21C1464.9 191.51 1456.32 200.917 1455.21 211.43L1445.25 272.85ZM1735.07 533.47C1756.65 516.317 1774.08 501.1 1787.36 487.82C1801.19 474.54 1811.7 461.26 1818.9 447.98C1789.02 440.233 1744.75 427.507 1686.1 409.8L1681.95 578.29C1698.55 564.457 1708.23 556.157 1711 553.39L1735.07 533.47ZM1868.7 649.67C1873.12 640.817 1882.53 633.347 1896.92 627.26C1911.3 620.62 1925.14 617.3 1938.42 617.3C1956.68 617.3 1965.81 623.11 1965.81 634.73C1965.81 638.05 1964.98 641.923 1963.32 646.35C1940.63 699.47 1923.48 750.93 1911.86 800.73C1909.09 811.797 1901.07 822.033 1887.79 831.44C1882.25 838.633 1873.68 844.72 1862.06 849.7C1850.99 854.68 1839.92 857.17 1828.86 857.17C1819.45 857.17 1811.7 855.233 1805.62 851.36C1800.08 847.487 1797.04 841.4 1796.49 833.1C1794.27 797.133 1782.38 764.21 1760.8 734.33C1739.77 704.45 1712.66 685.083 1679.46 676.23L1675.31 796.58C1674.75 807.093 1665.9 816.777 1648.75 825.63C1632.15 834.483 1616.1 838.91 1600.61 838.91C1592.31 838.91 1585.67 837.527 1580.69 834.76C1575.71 831.44 1573.22 826.46 1573.22 819.82L1575.71 705.28C1568.51 700.3 1564.92 694.49 1564.92 687.85C1564.92 680.103 1569.07 672.633 1577.37 665.44C1580.13 564.733 1583.45 464.303 1587.33 364.15C1587.88 352.53 1595.63 342.57 1610.57 334.27C1626.06 325.417 1641.55 320.99 1657.05 320.99C1668.67 320.99 1676.97 323.757 1681.95 329.29C1742.26 345.89 1804.79 364.15 1869.53 384.07C1879.49 381.857 1886.4 380.75 1890.28 380.75C1899.68 380.75 1906.88 382.963 1911.86 387.39C1917.39 391.263 1920.16 397.35 1920.16 405.65C1920.16 428.337 1912.69 449.363 1897.75 468.73C1882.81 487.543 1862.06 508.57 1835.5 531.81L1818.9 546.75C1792.34 572.757 1766.61 595.72 1741.71 615.64C1787.08 628.367 1823.6 653.543 1851.27 691.17C1853.48 685.637 1859.29 671.803 1868.7 649.67ZM2231.66 589.91C2239.96 568.883 2244.11 548.687 2244.11 529.32C2244.11 503.867 2236.92 483.117 2222.53 467.07C2200.95 441.617 2164.71 429.443 2113.8 430.55C2103.84 517.977 2096.09 623.387 2090.56 746.78C2122.1 730.18 2150.32 708.323 2175.22 681.21C2200.12 653.543 2218.93 623.11 2231.66 589.91ZM2122.1 365.81C2128.19 365.257 2137.59 364.98 2150.32 364.98C2217.83 364.98 2268.18 381.58 2301.38 414.78C2326.28 439.127 2338.73 470.39 2338.73 508.57C2338.73 528.49 2334.3 552.283 2325.45 579.95C2307.19 631.963 2276.76 678.72 2234.15 720.22C2191.54 761.167 2142.85 792.43 2088.07 814.01C2085.86 870.45 2084.2 919.697 2083.09 961.75C2081.98 1004.36 2081.15 1039.77 2080.6 1067.99C2080.05 1135.5 2078.39 1203.28 2075.62 1271.34C2075.07 1282.96 2066.77 1293.2 2050.72 1302.05C2034.67 1310.9 2018.35 1315.33 2001.75 1315.33C1982.38 1315.33 1972.7 1308.14 1972.7 1293.75L1973.53 1227.35C1974.08 1205.77 1974.91 1153.76 1976.02 1071.31C1977.68 988.863 1980.17 911.95 1983.49 840.57C1968.55 842.23 1953.89 843.06 1939.5 843.06C1928.99 843.06 1921.24 841.4 1916.26 838.08C1910.73 834.76 1907.96 830.333 1907.96 824.8C1907.96 814.84 1914.88 804.327 1928.71 793.26C1941.99 782.193 1955.55 776.66 1969.38 776.66C1977.13 776.66 1982.66 776.383 1985.98 775.83C1992.07 656.863 2001.47 542.6 2014.2 433.04C2010.33 430.827 2008.39 427.23 2008.39 422.25C2008.39 415.61 2011.99 407.863 2019.18 399.01C2019.18 395.69 2019.73 390.157 2020.84 382.41C2022.5 370.79 2031.35 360.83 2047.4 352.53C2063.45 343.677 2078.94 339.25 2093.88 339.25C2103.29 339.25 2110.48 341.187 2115.46 345.06C2120.99 348.933 2123.21 354.743 2122.1 362.49V365.81ZM2685.5 466.24C2674.99 457.387 2656.73 445.767 2630.72 431.38C2605.27 416.44 2585.63 408.97 2571.79 408.97C2560.73 408.97 2555.19 414.503 2555.19 425.57C2555.19 429.443 2556.58 436.083 2559.34 445.49C2563.22 458.217 2571.79 470.39 2585.07 482.01C2598.35 493.077 2615.78 506.08 2637.36 521.02C2655.07 533.193 2666.41 541.493 2671.39 545.92C2695.74 566.947 2715.11 584.653 2729.49 599.04C2743.88 612.873 2756.88 629.473 2768.5 648.84C2780.68 667.653 2786.76 687.02 2786.76 706.94C2786.76 720.22 2783.44 734.053 2776.8 748.44C2764.08 774.447 2743.05 794.367 2713.72 808.2C2684.95 822.033 2654.24 828.95 2621.59 828.95C2610.53 828.95 2599.46 828.12 2588.39 826.46C2513.14 813.733 2443.7 763.657 2380.06 676.23C2376.74 671.25 2375.08 666.27 2375.08 661.29C2375.08 649.117 2383.11 638.05 2399.15 628.09C2415.75 617.577 2432.08 612.32 2448.12 612.32C2460.3 612.32 2469.15 615.917 2474.68 623.11C2508.99 669.59 2542.74 703.62 2575.94 725.2C2606.38 745.12 2632.11 755.08 2653.13 755.08C2670.29 755.08 2678.86 747.61 2678.86 732.67C2678.86 722.157 2674.71 709.153 2666.41 693.66C2658.11 678.72 2647.32 664.61 2634.04 651.33C2620.76 638.05 2603.89 622.833 2583.41 605.68L2561 586.59C2558.79 584.377 2548.55 576.353 2530.29 562.52C2515.35 551.453 2502.63 541.217 2492.11 531.81C2481.6 522.403 2472.75 512.167 2465.55 501.1C2456.15 486.16 2451.44 470.667 2451.44 454.62C2451.44 429.72 2461.96 407.033 2482.98 386.56C2504.56 365.533 2529.19 351.147 2556.85 343.4C2574.56 338.42 2591.44 335.93 2607.48 335.93C2637.36 335.93 2666.14 342.847 2693.8 356.68C2722.02 370.513 2750.52 389.603 2779.29 413.95C2784.27 417.823 2786.76 422.527 2786.76 428.06C2786.76 438.573 2778.19 448.81 2761.03 458.77C2743.88 468.73 2727 473.71 2710.4 473.71C2699.34 473.71 2691.04 471.22 2685.5 466.24Z" fill="white"/>
<defs>
<linearGradient id="paint0_linear_2036_18" x1="723.804" y1="995.578" x2="704.917" y2="1158.26" gradientUnits="userSpaceOnUse">
<stop stop-color="#3A0063"/>
<stop offset="0.986558" stop-color="#7600C9"/>
</linearGradient>
<linearGradient id="paint1_linear_2036_18" x1="776.275" y1="-9.31213e-06" x2="319.395" y2="1060.53" gradientUnits="userSpaceOnUse">
<stop offset="0.0134415" stop-color="#7600C9"/>
<stop offset="1" stop-color="#3A0063"/>
</linearGradient>
<clipPath id="clip0_2036_18">
<rect width="1049" height="1137" fill="white"/>
</clipPath>
</defs>
</svg>
